# File created by Blade
# Date/Time:  Tue Jan 27 18:35:03 2015
# Frame Rate: 120.000 fps
#------------------------------------------------------
:FULLY-SPECIFIED
:DEGREES
1571
root -3.941448 31.470442 -2.105895 -12.519632 11.853577 -15.545971
Spine 11.909084 -12.949944 -2.307167
Head 12.675058 -2.881462 21.846025
LeftShoulder -11.986392 9.487360 18.943020
LeftArm 33.014732 -12.547943 -72.424367
LeftForeArm 130.399601 -0.000000 132.195603
LeftHand 9.874988 -0.000000 -8.674648
LeftHandThumb1 -26.253704 0.000000 33.147579
RightShoulder -15.512195 -9.162362 -5.620732
RightArm 2.127186 -35.833430 83.983813
RightForeArm -23.576246 0.000000 30.117480
RightHand -13.864420 -0.000000 12.253675
RightHandThumb1 -24.326973 -0.000000 -32.862282
LeftUpLeg -4.722740 4.346549 9.810220
LeftLeg 36.717607 -0.000000 -0.000000
LeftFoot -32.314001 10.420018 -19.416680
LeftToeBase 10.432477 -0.000000 -0.000000
RightUpLeg -88.925250 3.198729 26.407376
RightLeg 86.541832 -0.000000 -0.000000
RightFoot 0.349739 -16.154377 13.978006
RightToeBase -0.731612 -0.000000 0.000000
1572
root -3.939294 31.470098 -2.108024 -12.512927 11.795830 -15.529101
Spine 11.896348 -12.941345 -2.307843
Head 12.595791 -2.868319 21.839553
LeftShoulder -11.993549 9.472366 18.934272
LeftArm 32.971045 -12.615421 -72.459619
LeftForeArm 130.346910 -0.000000 132.142927
LeftHand 9.885151 0.000000 -8.590314
LeftHandThumb1 -26.253704 0.000000 33.147579
RightShoulder -15.503612 -9.155773 -5.643566
RightArm 2.128047 -35.836863 83.982652
RightForeArm -23.548371 0.000000 30.142392
RightHand -13.842748 -0.000000 12.235868
RightHandThumb1 -24.326973 -0.000000 -32.862282
LeftUpLeg -4.704384 4.376663 9.794982
LeftLeg 36.702586 -0.000000 -0.000000
LeftFoot -32.330835 10.431965 -19.459126
LeftToeBase 10.422327 -0.000000 -0.000000
RightUpLeg -88.864258 3.180067 26.439270
RightLeg 86.514963 -0.000000 -0.000000
RightFoot 0.468649 -16.134070 13.929671
RightToeBase -1.052590 -0.000000 0.000000
1573
root -3.937095 31.469706 -2.110158 -12.508818 11.742267 -15.509495
Spine 11.886147 -12.913585 -2.317013
Head 12.513265 -2.861234 21.852747
LeftShoulder -12.005192 9.473823 18.934643
LeftArm 32.955445 -12.632559 -72.490068
LeftForeArm 130.402809 -0.000000 132.088486
LeftHand 9.899279 -0.000000 -8.684994
LeftHandThumb1 -26.253704 0.000000 33.147579
RightShoulder -15.507796 -9.165890 -5.653783
RightArm 2.135792 -35.833262 83.976019
RightForeArm -23.534753 -0.000000 30.188122
RightHand -13.859174 -0.000000 12.236641
RightHandThumb1 -24.326973 -0.000000 -32.862282
LeftUpLeg -4.684149 4.388391 9.775174
LeftLeg 36.683812 -0.000000 -0.000000
LeftFoot -32.333078 10.478202 -19.448438
LeftToeBase 10.420042 -0.000000 -0.000000
RightUpLeg -88.808648 3.163192 26.460147
RightLeg 86.506684 -0.000000 -0.000000
RightFoot 0.379882 -16.123668 14.161988
RightToeBase -0.800366 -0.000000 0.000000
1574
root -3.936235 31.469658 -2.113288 -12.495481 11.696397 -15.498687
Spine 11.864298 -12.896099 -2.317810
Head 12.430040 -2.854691 21.863179
LeftShoulder -12.013426 9.461987 18.931705
LeftArm 32.922623 -12.690736 -72.508001
LeftForeArm 130.348223 -0.000000 132.019888
LeftHand 9.909058 -0.000000 -8.630010
LeftHandThumb1 -26.253704 0.000000 33.147579
RightShoulder -15.497152 -9.178354 -5.664878
RightArm 2.139247 -35.822860 83.979845
RightForeArm -23.548138 -0.000000 30.227682
RightHand -13.863783 0.000000 12.245094
RightHandThumb1 -24.326973 -0.000000 -32.862282
LeftUpLeg -4.679408 4.404195 9.765137
LeftLeg 36.663860 -0.000000 -0.000000
LeftFoot -32.335134 10.504995 -19.449009
LeftToeBase 10.387115 -0.000000 -0.000000
RightUpLeg -88.764563 3.153522 26.489292
RightLeg 86.486012 -0.000000 -0.000000
RightFoot 0.393699 -16.144680 14.200256
RightToeBase -0.863717 -0.000000 0.000000
1575
root -3.935248 31.469851 -2.115744 -12.486331 11.649669 -15.492161
Spine 11.845666 -12.879250 -2.317952
Head 12.340273 -2.860645 21.871961
LeftShoulder -12.039327 9.499596 18.935937
LeftArm 32.916029 -12.727014 -72.509026
LeftForeArm 130.387644 -0.000000 131.952131
LeftHand 9.871318 -0.000000 -8.638190
LeftHandThumb1 -26.253704 0.000000 33.147579
RightShoulder -15.495163 -9.189233 -5.675807
RightArm 2.159075 -35.868911 83.971051
RightForeArm -23.528184 -0.000000 30.246053
RightHand -13.879813 -0.000000 12.191677
RightHandThumb1 -24.326973 -0.000000 -32.862282
LeftUpLeg -4.669609 4.418593 9.757910
LeftLeg 36.656054 -0.000000 -0.000000
LeftFoot -32.338720 10.590172 -19.453931
LeftToeBase 10.301923 -0.000000 -0.000000
RightUpLeg -88.716133 3.147240 26.518748
RightLeg 86.468262 -0.000000 -0.000000
RightFoot 0.414420 -16.189585 14.203336
RightToeBase -0.957705 -0.000000 0.000000
1576
root -3.933934 31.470623 -2.118607 -12.471669 11.600032 -15.487809
Spine 11.816430 -12.842610 -2.303186
Head 12.256671 -2.883435 21.873699
LeftShoulder -12.025075 9.502202 18.928719
LeftArm 32.882702 -12.789627 -72.506281
LeftForeArm 130.403880 -0.000000 131.891290
LeftHand 9.825750 -0.000000 -8.624452
LeftHandThumb1 -26.253704 0.000000 33.147579
RightShoulder -15.508969 -9.201613 -5.687239
RightArm 2.168812 -35.891331 83.967774
RightForeArm -23.522002 -0.000000 30.272355
RightHand -13.878505 0.000000 12.232215
RightHandThumb1 -24.326973 -0.000000 -32.862282
LeftUpLeg -4.663924 4.423327 9.751665
LeftLeg 36.636267 -0.000000 -0.000000
LeftFoot -32.342240 10.632673 -19.465766
LeftToeBase 10.298059 -0.000000 -0.000000
RightUpLeg -88.673363 3.143763 26.535625
RightLeg 86.448797 -0.000000 -0.000000
RightFoot 0.439929 -16.194825 14.226052
RightToeBase -0.900335 -0.000000 0.000000
